<?xml version="1.0" encoding="UTF-8"?>
<!DOCTYPE svg PUBLIC "-//W3C//DTD SVG 1.1//EN"
    "http://www.w3.org/Graphics/SVG/1.1/DTD/svg11.dtd" >
<svg contentScriptType="text/ecmascript" width="2823.0754"
     xmlns:xlink="http://www.w3.org/1999/xlink" zoomAndPan="magnify"
     contentStyleType="text/css"
     viewBox="-1028.075439 -330.073181 2823.075439 1573.979248"
     height="1573.9792" preserveAspectRatio="xMidYMid meet"
     xmlns="http://www.w3.org/2000/svg" version="1.1">
    <g id="edges">
        <path fill="none" stroke-width="0.5"
              d="M 294.644348,-7.708130 C 262.688141,3.148947 198.468231,-28.499735 187.611160,-60.455933"
              class="id_1 id_2" stroke-opacity="0.2" stroke="#000000"/>
        <path fill="none" stroke-width="0.044453125"
              d="M 294.644348,-7.708130 C 286.352966,1.175582 260.590332,2.064084 251.706619,-6.227295"
              class="id_1 id_3" stroke-opacity="0.2" stroke="#000000"/>
        <path fill="none" stroke-width="0.26903647"
              d="M 294.644348,-7.708130 C 254.538956,-19.022259 211.352036,-96.151558 222.666168,-136.256958"
              class="id_1 id_4" stroke-opacity="0.2" stroke="#000000"/>
        <path fill="none" stroke-width="0.33666667"
              d="M 294.644348,-7.708130 C 257.697021,-23.289082 225.647476,-102.081490 241.228424,-139.028809"
              class="id_1 id_5" stroke-opacity="0.2" stroke="#000000"/>
        <path fill="none" stroke-width="0.08018229"
              d="M 294.644348,-7.708130 C 289.324158,-5.139654 277.491180,-9.267218 274.922699,-14.587402"
              class="id_1 id_6" stroke-opacity="0.2" stroke="#000000"/>
        <path fill="none" stroke-width="0.04955729"
              d="M 294.644348,-7.708130 C 275.945557,-11.642342 253.798676,-45.591850 257.732880,-64.290649"
              class="id_1 id_7" stroke-opacity="0.2" stroke="#000000"/>
        <path fill="none" stroke-width="0.054661456"
              d="M 294.644348,-7.708130 C 317.755707,-1.910296 343.726013,41.453510 337.928192,64.564880"
              class="id_1 id_8" stroke-opacity="0.2" stroke="#000000"/>
        <path fill="none" stroke-width="0.050833333"
              d="M 294.644348,-7.708130 C 276.482391,-15.947426 261.598358,-55.549324 269.837646,-73.711304"
              class="id_1 id_9" stroke-opacity="0.2" stroke="#000000"/>
        <path fill="none" stroke-width="0.058489583"
              d="M 294.644348,-7.708130 C 253.937820,-34.685772 233.344467,-136.212051 260.322113,-176.918579"
              class="id_1 id_10" stroke-opacity="0.2" stroke="#000000"/>
        <path fill="none" stroke-width="0.06997396"
              d="M 294.644348,-7.708130 C 277.151489,-18.502142 267.103241,-60.932442 277.897247,-78.425293"
              class="id_1 id_11" stroke-opacity="0.2" stroke="#000000"/>
        <path fill="none" stroke-width="0.022760417"
              d="M 294.644348,-7.708130 C 314.385834,-64.860214 429.726227,-120.976105 486.878296,-101.234619"
              class="id_1 id_12" stroke-opacity="0.2" stroke="#000000"/>
        <path fill="none" stroke-width="0.068697914"
              d="M 294.644348,-7.708130 C 291.570648,-12.524188 294.184204,-24.358807 299.000275,-27.432495"
              class="id_1 id_13" stroke-opacity="0.2" stroke="#000000"/>
        <path fill="none" stroke-width="0.018932292"
              d="M 294.644348,-7.708130 C 294.193390,-26.148083 321.176849,-54.484463 339.616821,-54.935425"
              class="id_1 id_14" stroke-opacity="0.2" stroke="#000000"/>
        <path fill="none" stroke-width="0.016380208"
              d="M 294.644348,-7.708130 C 101.198952,249.500015 -574.781250,345.144135 -831.989380,151.698730"
              class="id_1 id_15" stroke-opacity="0.2" stroke="#000000"/>
        <path fill="none" stroke-width="0.011276041"
              d="M 294.644348,-7.708130 C 351.756165,-36.143925 480.077545,6.870075 508.513336,63.981873"
              class="id_1 id_16" stroke-opacity="0.2" stroke="#000000"/>
        <path fill="none" stroke-width="0.016380208"
              d="M 294.644348,-7.708130 C 317.305725,-35.386246 392.815002,-42.911331 420.493103,-20.249939"
              class="id_1 id_17" stroke-opacity="0.2" stroke="#000000"/>
        <path fill="none" stroke-width="0.011276041"
              d="M 294.644348,-7.708130 C 325.297333,-89.484467 493.941315,-166.169479 575.717651,-135.516479"
              class="id_1 id_19" stroke-opacity="0.2" stroke="#000000"/>
        <path fill="none" stroke-width="0.15929687"
              d="M 294.644348,-7.708130 C 93.972778,286.812958 -648.816223,427.587219 -943.337280,226.915649"
              class="id_1 id_20" stroke-opacity="0.2" stroke="#000000"/>
        <path fill="none" stroke-width="0.013828125"
              d="M 294.644348,-7.708130 C 100.783188,252.210068 -579.885803,351.295593 -839.804016,157.434448"
              class="id_1 id_21" stroke-opacity="0.2" stroke="#000000"/>
        <path fill="none" stroke-width="0.011276041"
              d="M 294.644348,-7.708130 C 307.178864,-45.366081 382.467590,-83.051239 420.125519,-70.516724"
              class="id_1 id_23" stroke-opacity="0.2" stroke="#000000"/>
        <path fill="none" stroke-width="0.1478125"
              d="M 294.644348,-7.708130 C 90.802605,312.310486 -694.987793,486.575745 -1015.006409,282.734009"
              class="id_1 id_27" stroke-opacity="0.2" stroke="#000000"/>
        <path fill="none" stroke-width="0.027864583"
              d="M 294.644348,-7.708130 C 98.183197,260.526337 -598.860168,368.186310 -867.094604,171.725159"
              class="id_1 id_28" stroke-opacity="0.2" stroke="#000000"/>
        <path fill="none" stroke-width="0.016380208"
              d="M 294.644348,-7.708130 C 97.474503,277.282043 -625.765503,409.012512 -910.755676,211.842651"
              class="id_1 id_29" stroke-opacity="0.2" stroke="#000000"/>
        <path fill="none" stroke-width="0.013828125"
              d="M 294.644348,-7.708130 C 112.368187,325.379486 -660.677429,551.596680 -993.765015,369.320496"
              class="id_1 id_30" stroke-opacity="0.2" stroke="#000000"/>
        <path fill="none" stroke-width="0.030416666"
              d="M 187.611160,-60.455933 C 219.567352,-71.313011 283.787262,-39.664330 294.644348,-7.708130"
              class="id_2 id_1" stroke-opacity="0.2" stroke="#000000"/>
        <path fill="none" stroke-width="0.01"
              d="M 187.611160,-60.455933 C 211.275986,-62.429298 249.733261,-29.892113 251.706619,-6.227295"
              class="id_2 id_3" stroke-opacity="0.2" stroke="#000000"/>
        <path fill="none" stroke-width="0.016380208"
              d="M 187.611160,-60.455933 C 179.461960,-82.627136 200.494965,-128.107758 222.666168,-136.256958"
              class="id_2 id_4" stroke-opacity="0.2" stroke="#000000"/>
        <path fill="none" stroke-width="0.021484375"
              d="M 187.611160,-60.455933 C 182.620041,-86.893959 214.790405,-134.037689 241.228424,-139.028809"
              class="id_2 id_5" stroke-opacity="0.2" stroke="#000000"/>
        <path fill="none" stroke-width="0.011276041"
              d="M 187.611160,-60.455933 C 214.247177,-68.744537 266.634094,-41.223415 274.922699,-14.587402"
              class="id_2 id_6" stroke-opacity="0.2" stroke="#000000"/>
        <path fill="none" stroke-width="0.01"
              d="M 187.611160,-60.455933 C 200.868561,-75.247223 242.941605,-77.548050 257.732880,-64.290649"
              class="id_2 id_7" stroke-opacity="0.2" stroke="#000000"/>
        <path fill="none" stroke-width="0.01"
              d="M 187.611160,-60.455933 C 242.678726,-65.515175 332.868927,9.497313 337.928192,64.564880"
              class="id_2 id_8" stroke-opacity="0.2" stroke="#000000"/>
        <path fill="none" stroke-width="0.011276041"
              d="M 187.611160,-60.455933 C 178.860825,-98.290649 222.487396,-168.168243 260.322113,-176.918579"
              class="id_2 id_10" stroke-opacity="0.2" stroke="#000000"/>
        <path fill="none" stroke-width="0.0125520835"
              d="M 187.611160,-60.455933 C 202.074509,-82.107025 256.246155,-92.888641 277.897247,-78.425293"
              class="id_2 id_11" stroke-opacity="0.2" stroke="#000000"/>
        <path fill="none" stroke-width="0.01"
              d="M 187.611160,-60.455933 C 216.493668,-76.129074 283.327118,-56.315006 299.000275,-27.432495"
              class="id_2 id_13" stroke-opacity="0.2" stroke="#000000"/>
        <path fill="none" stroke-width="0.01"
              d="M 187.611160,-60.455933 C 26.121986,185.895111 -585.638367,313.187897 -831.989380,151.698730"
              class="id_2 id_15" stroke-opacity="0.2" stroke="#000000"/>
        <path fill="none" stroke-width="0.011276041"
              d="M 187.611160,-60.455933 C 18.895782,223.208084 -659.673279,395.631042 -943.337280,226.915649"
              class="id_2 id_20" stroke-opacity="0.2" stroke="#000000"/>
        <path fill="none" stroke-width="0.015104166"
              d="M 187.611160,-60.455933 C 15.725639,248.705566 -705.844910,454.619507 -1015.006409,282.734009"
              class="id_2 id_27" stroke-opacity="0.2" stroke="#000000"/>
        <path fill="none" stroke-width="0.01"
              d="M 187.611160,-60.455933 C 37.291199,261.774597 -671.534424,519.640442 -993.765015,369.320496"
              class="id_2 id_30" stroke-opacity="0.2" stroke="#000000"/>
        <path fill="none" stroke-width="0.01"
              d="M 251.706619,-6.227295 C 259.997986,-15.111008 285.760620,-15.999508 294.644348,-7.708130"
              class="id_3 id_1" stroke-opacity="0.2" stroke="#000000"/>
        <path fill="none" stroke-width="0.01"
              d="M 222.666168,-136.256958 C 262.771576,-124.942833 305.958496,-47.813534 294.644348,-7.708130"
              class="id_4 id_1" stroke-opacity="0.2" stroke="#000000"/>
        <path fill="none" stroke-width="0.01"
              d="M 222.666168,-136.256958 C 225.824249,-140.523773 236.961609,-142.186890 241.228424,-139.028809"
              class="id_4 id_5" stroke-opacity="0.2" stroke="#000000"/>
        <path fill="none" stroke-width="0.01"
              d="M 222.666168,-136.256958 C 222.065033,-151.920471 244.658600,-176.317444 260.322113,-176.918579"
              class="id_4 id_10" stroke-opacity="0.2" stroke="#000000"/>
        <path fill="none" stroke-width="0.01"
              d="M 222.666168,-136.256958 C 58.929832,195.075775 -683.673645,446.470337 -1015.006409,282.734009"
              class="id_4 id_27" stroke-opacity="0.2" stroke="#000000"/>
        <path fill="none" stroke-width="0.044453125"
              d="M 241.228424,-139.028809 C 278.175751,-123.447853 310.225281,-44.655453 294.644348,-7.708130"
              class="id_5 id_1" stroke-opacity="0.2" stroke="#000000"/>
        <path fill="none" stroke-width="0.02658854"
              d="M 241.228424,-139.028809 C 246.219543,-112.590782 214.049179,-65.447060 187.611160,-60.455933"
              class="id_5 id_2" stroke-opacity="0.2" stroke="#000000"/>
        <path fill="none" stroke-width="0.01"
              d="M 241.228424,-139.028809 C 269.884369,-114.564148 276.171265,-34.883236 251.706619,-6.227295"
              class="id_5 id_3" stroke-opacity="0.2" stroke="#000000"/>
        <path fill="none" stroke-width="0.03934896"
              d="M 241.228424,-139.028809 C 238.070343,-134.761993 226.932983,-133.098877 222.666168,-136.256958"
              class="id_5 id_4" stroke-opacity="0.2" stroke="#000000"/>
        <path fill="none" stroke-width="0.01"
              d="M 241.228424,-139.028809 C 272.855560,-120.879379 293.072113,-46.214539 274.922699,-14.587402"
              class="id_5 id_6" stroke-opacity="0.2" stroke="#000000"/>
        <path fill="none" stroke-width="0.011276041"
              d="M 241.228424,-139.028809 C 301.287109,-117.650024 359.306946,4.506191 337.928192,64.564880"
              class="id_5 id_8" stroke-opacity="0.2" stroke="#000000"/>
        <path fill="none" stroke-width="0.01"
              d="M 241.228424,-139.028809 C 260.013763,-131.687149 277.179321,-92.496651 269.837646,-73.711304"
              class="id_5 id_9" stroke-opacity="0.2" stroke="#000000"/>
        <path fill="none" stroke-width="0.024036458"
              d="M 241.228424,-139.028809 C 237.469208,-150.425507 248.925430,-173.159363 260.322113,-176.918579"
              class="id_5 id_10" stroke-opacity="0.2" stroke="#000000"/>
        <path fill="none" stroke-width="0.01"
              d="M 241.228424,-139.028809 C 84.730377,133.760254 -559.200317,308.196777 -831.989380,151.698730"
              class="id_5 id_15" stroke-opacity="0.2" stroke="#000000"/>
        <path fill="none" stroke-width="0.021484375"
              d="M 241.228424,-139.028809 C 77.504181,171.073212 -633.235229,390.639893 -943.337280,226.915649"
              class="id_5 id_20" stroke-opacity="0.2" stroke="#000000"/>
        <path fill="none" stroke-width="0.029140625"
              d="M 241.228424,-139.028809 C 74.334007,196.570740 -679.406860,449.628418 -1015.006409,282.734009"
              class="id_5 id_27" stroke-opacity="0.2" stroke="#000000"/>
        <path fill="none" stroke-width="0.011276041"
              d="M 241.228424,-139.028809 C 81.714622,144.786591 -583.279175,331.238953 -867.094604,171.725159"
              class="id_5 id_28" stroke-opacity="0.2" stroke="#000000"/>
        <path fill="none" stroke-width="0.022760417"
              d="M 274.922699,-14.587402 C 280.242889,-17.155878 292.075867,-13.028315 294.644348,-7.708130"
              class="id_6 id_1" stroke-opacity="0.2" stroke="#000000"/>
        <path fill="none" stroke-width="0.020208333"
              d="M 274.922699,-14.587402 C 248.286682,-6.298801 195.899765,-33.819920 187.611160,-60.455933"
              class="id_6 id_2" stroke-opacity="0.2" stroke="#000000"/>
        <path fill="none" stroke-width="0.01"
              d="M 274.922699,-14.587402 C 271.951508,-8.272164 258.021851,-3.256100 251.706619,-6.227295"
              class="id_6 id_3" stroke-opacity="0.2" stroke="#000000"/>
        <path fill="none" stroke-width="0.016380208"
              d="M 274.922699,-14.587402 C 240.137497,-28.470005 208.783569,-101.471741 222.666168,-136.256958"
              class="id_6 id_4" stroke-opacity="0.2" stroke="#000000"/>
        <path fill="none" stroke-width="0.015104166"
              d="M 274.922699,-14.587402 C 243.295563,-32.736832 223.079010,-107.401672 241.228424,-139.028809"
              class="id_6 id_5" stroke-opacity="0.2" stroke="#000000"/>
        <path fill="none" stroke-width="0.01"
              d="M 274.922699,-14.587402 C 262.080933,-25.395172 259.029877,-60.869514 269.837646,-73.711304"
              class="id_6 id_9" stroke-opacity="0.2" stroke="#000000"/>
        <path fill="none" stroke-width="0.011276041"
              d="M 274.922699,-14.587402 C 277.169189,-21.971937 291.615723,-29.678991 299.000275,-27.432495"
              class="id_6 id_13" stroke-opacity="0.2" stroke="#000000"/>
        <path fill="none" stroke-width="0.011276041"
              d="M 274.922699,-14.587402 C 79.571304,277.365234 -651.384705,422.267029 -943.337280,226.915649"
              class="id_6 id_20" stroke-opacity="0.2" stroke="#000000"/>
        <path fill="none" stroke-width="0.011276041"
              d="M 274.922699,-14.587402 C 76.401169,302.862671 -697.556335,481.255554 -1015.006409,282.734009"
              class="id_6 id_27" stroke-opacity="0.2" stroke="#000000"/>
        <path fill="none" stroke-width="0.011276041"
              d="M 257.732880,-64.290649 C 276.431671,-60.356438 298.578552,-26.406929 294.644348,-7.708130"
              class="id_7 id_1" stroke-opacity="0.2" stroke="#000000"/>
        <path fill="none" stroke-width="0.011276041"
              d="M 257.732880,-64.290649 C 244.475479,-49.499359 202.402435,-47.198532 187.611160,-60.455933"
              class="id_7 id_2" stroke-opacity="0.2" stroke="#000000"/>
        <path fill="none" stroke-width="0.01"
              d="M 257.732880,-64.290649 C 239.484360,-75.937393 229.581680,-120.780289 241.228424,-139.028809"
              class="id_7 id_5" stroke-opacity="0.2" stroke="#000000"/>
        <path fill="none" stroke-width="0.01"
              d="M 257.732880,-64.290649 C 258.938812,-71.150452 271.037445,-79.631241 277.897247,-78.425293"
              class="id_7 id_11" stroke-opacity="0.2" stroke="#000000"/>
        <path fill="none" stroke-width="0.01"
              d="M 257.732880,-64.290649 C 75.760086,234.164658 -644.881958,408.888428 -943.337280,226.915649"
              class="id_7 id_20" stroke-opacity="0.2" stroke="#000000"/>
        <path fill="none" stroke-width="0.01"
              d="M 257.732880,-64.290649 C 72.589958,259.662140 -691.053650,467.876923 -1015.006409,282.734009"
              class="id_7 id_27" stroke-opacity="0.2" stroke="#000000"/>
        <path fill="none" stroke-width="0.015104166"
              d="M 337.928192,64.564880 C 314.816833,58.767048 288.846527,15.403241 294.644348,-7.708130"
              class="id_8 id_1" stroke-opacity="0.2" stroke="#000000"/>
        <path fill="none" stroke-width="0.0125520835"
              d="M 337.928192,64.564880 C 282.860626,69.624123 192.670395,-5.388365 187.611160,-60.455933"
              class="id_8 id_2" stroke-opacity="0.2" stroke="#000000"/>
        <path fill="none" stroke-width="0.01"
              d="M 337.928192,64.564880 C 274.711426,47.452919 205.554199,-73.040184 222.666168,-136.256958"
              class="id_8 id_4" stroke-opacity="0.2" stroke="#000000"/>
        <path fill="none" stroke-width="0.0125520835"
              d="M 337.928192,64.564880 C 277.869507,43.186100 219.849655,-78.970123 241.228424,-139.028809"
              class="id_8 id_5" stroke-opacity="0.2" stroke="#000000"/>
        <path fill="none" stroke-width="0.01"
              d="M 337.928192,64.564880 C 337.478210,31.088930 387.017181,-19.799957 420.493103,-20.249939"
              class="id_8 id_17" stroke-opacity="0.2" stroke="#000000"/>
        <path fill="none" stroke-width="0.01"
              d="M 337.928192,64.564880 C 114.145233,353.288147 -654.614014,450.698608 -943.337280,226.915649"
              class="id_8 id_20" stroke-opacity="0.2" stroke="#000000"/>
        <path fill="none" stroke-width="0.011276041"
              d="M 337.928192,64.564880 C 110.975105,378.785614 -700.785645,509.687103 -1015.006409,282.734009"
              class="id_8 id_27" stroke-opacity="0.2" stroke="#000000"/>
        <path fill="none" stroke-width="0.01"
              d="M 337.928192,64.564880 C 118.355682,327.001495 -604.657959,391.297668 -867.094604,171.725159"
              class="id_8 id_28" stroke-opacity="0.2" stroke="#000000"/>
        <path fill="none" stroke-width="0.01"
              d="M 337.928192,64.564880 C 132.540665,391.854675 -666.475281,574.708008 -993.765015,369.320496"
              class="id_8 id_30" stroke-opacity="0.2" stroke="#000000"/>
        <path fill="none" stroke-width="0.01"
              d="M 269.837646,-73.711304 C 287.999603,-65.472008 302.883636,-25.870106 294.644348,-7.708130"
              class="id_9 id_1" stroke-opacity="0.2" stroke="#000000"/>
        <path fill="none" stroke-width="0.01"
              d="M 269.837646,-73.711304 C 270.506744,-76.266022 275.342529,-79.094421 277.897247,-78.425293"
              class="id_9 id_11" stroke-opacity="0.2" stroke="#000000"/>
        <path fill="none" stroke-width="0.01"
              d="M 260.322113,-176.918579 C 301.028656,-149.940933 321.622009,-48.414669 294.644348,-7.708130"
              class="id_10 id_1" stroke-opacity="0.2" stroke="#000000"/>
        <path fill="none" stroke-width="0.01"
              d="M 260.322113,-176.918579 C 269.072449,-139.083862 225.445877,-69.206268 187.611160,-60.455933"
              class="id_10 id_2" stroke-opacity="0.2" stroke="#000000"/>
        <path fill="none" stroke-width="0.01"
              d="M 260.322113,-176.918579 C 264.081329,-165.521881 252.625122,-142.788025 241.228424,-139.028809"
              class="id_10 id_5" stroke-opacity="0.2" stroke="#000000"/>
        <path fill="none" stroke-width="0.01"
              d="M 277.897247,-78.425293 C 295.390106,-67.631279 305.438354,-25.200983 294.644348,-7.708130"
              class="id_11 id_1" stroke-opacity="0.2" stroke="#000000"/>
        <path fill="none" stroke-width="0.01"
              d="M 277.897247,-78.425293 C 263.433899,-56.774204 209.262253,-45.992588 187.611160,-60.455933"
              class="id_11 id_2" stroke-opacity="0.2" stroke="#000000"/>
        <path fill="none" stroke-width="0.01"
              d="M 277.897247,-78.425293 C 276.691315,-71.565491 264.592682,-63.084702 257.732880,-64.290649"
              class="id_11 id_7" stroke-opacity="0.2" stroke="#000000"/>
        <path fill="none" stroke-width="0.01"
              d="M 277.897247,-78.425293 C 318.501465,-61.833443 354.520020,23.960653 337.928192,64.564880"
              class="id_11 id_8" stroke-opacity="0.2" stroke="#000000"/>
        <path fill="none" stroke-width="0.011276041"
              d="M 486.878296,-101.234619 C 467.136810,-44.082531 351.796417,12.033361 294.644348,-7.708130"
              class="id_12 id_1" stroke-opacity="0.2" stroke="#000000"/>
        <path fill="none" stroke-width="0.01"
              d="M 486.878296,-101.234619 C 435.180603,-33.225449 255.620331,-8.758240 187.611160,-60.455933"
              class="id_12 id_2" stroke-opacity="0.2" stroke="#000000"/>
        <path fill="none" stroke-width="0.01"
              d="M 486.878296,-101.234619 C 426.430267,-71.060181 290.496582,-116.470551 260.322113,-176.918579"
              class="id_12 id_10" stroke-opacity="0.2" stroke="#000000"/>
        <path fill="none" stroke-width="0.01"
              d="M 486.878296,-101.234619 C 263.295044,275.936096 -637.835693,506.317261 -1015.006409,282.734009"
              class="id_12 id_27" stroke-opacity="0.2" stroke="#000000"/>
        <path fill="none" stroke-width="0.01"
              d="M 486.878296,-101.234619 C 269.966919,240.907669 -568.613403,428.754028 -910.755676,211.842651"
              class="id_12 id_29" stroke-opacity="0.2" stroke="#000000"/>
        <path fill="none" stroke-width="0.018932292"
              d="M 299.000275,-27.432495 C 302.073975,-22.616436 299.460419,-10.781817 294.644348,-7.708130"
              class="id_13 id_1" stroke-opacity="0.2" stroke="#000000"/>
        <path fill="none" stroke-width="0.015104166"
              d="M 299.000275,-27.432495 C 270.117767,-11.759357 203.284286,-31.573421 187.611160,-60.455933"
              class="id_13 id_2" stroke-opacity="0.2" stroke="#000000"/>
        <path fill="none" stroke-width="0.01"
              d="M 299.000275,-27.432495 C 293.782562,-13.732724 265.406372,-1.009604 251.706619,-6.227295"
              class="id_13 id_3" stroke-opacity="0.2" stroke="#000000"/>
        <path fill="none" stroke-width="0.013828125"
              d="M 299.000275,-27.432495 C 261.968567,-33.930565 216.168091,-99.225243 222.666168,-136.256958"
              class="id_13 id_4" stroke-opacity="0.2" stroke="#000000"/>
        <path fill="none" stroke-width="0.0125520835"
              d="M 299.000275,-27.432495 C 265.126617,-38.197388 230.463531,-105.155182 241.228424,-139.028809"
              class="id_13 id_5" stroke-opacity="0.2" stroke="#000000"/>
        <path fill="none" stroke-width="0.011276041"
              d="M 299.000275,-27.432495 C 296.753784,-20.047960 282.307251,-12.340906 274.922699,-14.587402"
              class="id_13 id_6" stroke-opacity="0.2" stroke="#000000"/>
        <path fill="none" stroke-width="0.01"
              d="M 299.000275,-27.432495 C 325.185333,-16.818604 348.542084,38.379822 337.928192,64.564880"
              class="id_13 id_8" stroke-opacity="0.2" stroke="#000000"/>
        <path fill="none" stroke-width="0.01"
              d="M 299.000275,-27.432495 C 324.735352,-50.294548 397.631073,-45.985016 420.493103,-20.249939"
              class="id_13 id_17" stroke-opacity="0.2" stroke="#000000"/>
        <path fill="none" stroke-width="0.011276041"
              d="M 299.000275,-27.432495 C 98.232216,297.402161 -690.171753,483.502075 -1015.006409,282.734009"
              class="id_13 id_27" stroke-opacity="0.2" stroke="#000000"/>
        <path fill="none" stroke-width="0.01"
              d="M 339.616821,-54.935425 C 340.067780,-36.495472 313.084320,-8.159093 294.644348,-7.708130"
              class="id_14 id_1" stroke-opacity="0.2" stroke="#000000"/>
        <path fill="none" stroke-width="0.01"
              d="M 339.616821,-54.935425 C 308.111603,-25.638395 216.908203,-28.950697 187.611160,-60.455933"
              class="id_14 id_2" stroke-opacity="0.2" stroke="#000000"/>
        <path fill="none" stroke-width="0.01"
              d="M 339.616821,-54.935425 C 331.776428,-27.611757 279.030304,1.613120 251.706619,-6.227295"
              class="id_14 id_3" stroke-opacity="0.2" stroke="#000000"/>
        <path fill="none" stroke-width="0.01"
              d="M 339.616821,-54.935425 C 322.574951,-47.289486 285.543182,-61.383404 277.897247,-78.425293"
              class="id_14 id_11" stroke-opacity="0.2" stroke="#000000"/>
        <path fill="none" stroke-width="0.01"
              d="M 339.616821,-54.935425 C 139.396210,258.025604 -630.376221,427.136261 -943.337280,226.915649"
              class="id_14 id_20" stroke-opacity="0.2" stroke="#000000"/>
        <path fill="none" stroke-width="0.01"
              d="M 339.616821,-54.935425 C 136.226059,283.523132 -676.547913,486.124756 -1015.006409,282.734009"
              class="id_14 id_27" stroke-opacity="0.2" stroke="#000000"/>
        <path fill="none" stroke-width="0.01"
              d="M -831.989380,151.698730 C -638.543945,-105.509407 37.436211,-201.153519 294.644348,-7.708130"
              class="id_15 id_1" stroke-opacity="0.2" stroke="#000000"/>
        <path fill="none" stroke-width="0.01"
              d="M -831.989380,151.698730 C -670.500183,-94.652306 -58.739876,-221.945099 187.611160,-60.455933"
              class="id_15 id_2" stroke-opacity="0.2" stroke="#000000"/>
        <path fill="none" stroke-width="0.01"
              d="M -831.989380,151.698730 C -675.491333,-121.090332 -31.560638,-295.526855 241.228424,-139.028809"
              class="id_15 id_5" stroke-opacity="0.2" stroke="#000000"/>
        <path fill="none" stroke-width="0.01"
              d="M -831.989380,151.698730 C -657.242798,-109.443604 -3.409454,-239.037231 257.732880,-64.290649"
              class="id_15 id_7" stroke-opacity="0.2" stroke="#000000"/>
        <path fill="none" stroke-width="0.01"
              d="M -831.989380,151.698730 C -615.432617,-99.711563 86.517899,-151.991867 337.928192,64.564880"
              class="id_15 id_8" stroke-opacity="0.2" stroke="#000000"/>
        <path fill="none" stroke-width="0.01"
              d="M 508.513336,63.981873 C 451.401520,92.417664 323.080139,49.403667 294.644348,-7.708130"
              class="id_16 id_1" stroke-opacity="0.2" stroke="#000000"/>
        <path fill="none" stroke-width="0.01"
              d="M 508.513336,63.981873 C 419.445313,103.274750 226.904037,28.612064 187.611160,-60.455933"
              class="id_16 id_2" stroke-opacity="0.2" stroke="#000000"/>
        <path fill="none" stroke-width="0.01"
              d="M 508.513336,63.981873 C 411.296143,81.103546 239.787842,-39.039753 222.666168,-136.256958"
              class="id_16 id_4" stroke-opacity="0.2" stroke="#000000"/>
        <path fill="none" stroke-width="0.01"
              d="M 508.513336,63.981873 C 414.454224,76.836716 254.083252,-44.969692 241.228424,-139.028809"
              class="id_16 id_5" stroke-opacity="0.2" stroke="#000000"/>
        <path fill="none" stroke-width="0.01"
              d="M 508.513336,63.981873 C 448.327850,87.601608 322.620026,32.752991 299.000275,-27.432495"
              class="id_16 id_13" stroke-opacity="0.2" stroke="#000000"/>
        <path fill="none" stroke-width="0.01"
              d="M 420.493103,-20.249939 C 357.726288,-3.885956 239.030167,-73.490173 222.666168,-136.256958"
              class="id_17 id_4" stroke-opacity="0.2" stroke="#000000"/>
        <path fill="none" stroke-width="0.01"
              d="M 420.493103,-20.249939 C 360.884399,-8.152779 253.325592,-79.420097 241.228424,-139.028809"
              class="id_17 id_5" stroke-opacity="0.2" stroke="#000000"/>
        <path fill="none" stroke-width="0.01"
              d="M 420.493103,-20.249939 C 357.125153,-19.549469 261.022583,-113.550659 260.322113,-176.918579"
              class="id_17 id_10" stroke-opacity="0.2" stroke="#000000"/>
        <path fill="none" stroke-width="0.01"
              d="M 388.104645,-69.627808 C 381.796539,-38.551811 325.720337,-1.400003 294.644348,-7.708130"
              class="id_18 id_1" stroke-opacity="0.2" stroke="#000000"/>
        <path fill="none" stroke-width="0.01"
              d="M 388.104645,-69.627808 C 376.476349,-35.983337 308.567169,-2.959093 274.922699,-14.587402"
              class="id_18 id_6" stroke-opacity="0.2" stroke="#000000"/>
        <path fill="none" stroke-width="0.01"
              d="M 575.717651,-135.516479 C 545.064636,-53.740147 376.420685,22.944866 294.644348,-7.708130"
              class="id_19 id_1" stroke-opacity="0.2" stroke="#000000"/>
        <path fill="none" stroke-width="0.01"
              d="M 575.717651,-135.516479 C 508.117340,-69.321098 307.423828,-71.428490 241.228424,-139.028809"
              class="id_19 id_5" stroke-opacity="0.2" stroke="#000000"/>
        <path fill="none" stroke-width="0.01"
              d="M 575.717651,-135.516479 C 568.176086,-47.942314 425.502350,72.106499 337.928192,64.564880"
              class="id_19 id_8" stroke-opacity="0.2" stroke="#000000"/>
        <path fill="none" stroke-width="0.0125520835"
              d="M -943.337280,226.915649 C -742.665710,-67.605438 0.123260,-208.379700 294.644348,-7.708130"
              class="id_20 id_1" stroke-opacity="0.2" stroke="#000000"/>
        <path fill="none" stroke-width="0.01"
              d="M -943.337280,226.915649 C -774.621887,-56.748367 -96.052856,-229.171310 187.611160,-60.455933"
              class="id_20 id_2" stroke-opacity="0.2" stroke="#000000"/>
        <path fill="none" stroke-width="0.011276041"
              d="M -943.337280,226.915649 C -782.771118,-78.919556 -83.169037,-296.823120 222.666168,-136.256958"
              class="id_20 id_4" stroke-opacity="0.2" stroke="#000000"/>
        <path fill="none" stroke-width="0.011276041"
              d="M -943.337280,226.915649 C -779.613037,-83.186371 -68.873596,-302.753052 241.228424,-139.028809"
              class="id_20 id_5" stroke-opacity="0.2" stroke="#000000"/>
        <path fill="none" stroke-width="0.01"
              d="M -943.337280,226.915649 C -761.364502,-71.539658 -40.722431,-246.263443 257.732880,-64.290649"
              class="id_20 id_7" stroke-opacity="0.2" stroke="#000000"/>
        <path fill="none" stroke-width="0.01"
              d="M -943.337280,226.915649 C -719.554321,-61.807617 49.204926,-159.218079 337.928192,64.564880"
              class="id_20 id_8" stroke-opacity="0.2" stroke="#000000"/>
        <path fill="none" stroke-width="0.01"
              d="M -943.337280,226.915649 C -760.827637,-75.844742 -32.922741,-256.220917 269.837646,-73.711304"
              class="id_20 id_9" stroke-opacity="0.2" stroke="#000000"/>
        <path fill="none" stroke-width="0.01"
              d="M -943.337280,226.915649 C -685.441223,-99.343231 190.791107,-201.887482 517.049988,56.008545"
              class="id_20 id_26" stroke-opacity="0.2" stroke="#000000"/>
        <path fill="none" stroke-width="0.011276041"
              d="M -943.337280,226.915649 C -946.507385,252.413147 -989.508911,285.904175 -1015.006409,282.734009"
              class="id_20 id_27" stroke-opacity="0.2" stroke="#000000"/>
        <path fill="none" stroke-width="0.01"
              d="M -839.804016,157.434448 C -645.942810,-102.483749 34.726151,-201.569290 294.644348,-7.708130"
              class="id_21 id_1" stroke-opacity="0.2" stroke="#000000"/>
        <path fill="none" stroke-width="0.01"
              d="M -839.804016,157.434448 C -686.048279,-113.797867 -48.566147,-290.012695 222.666168,-136.256958"
              class="id_21 id_4" stroke-opacity="0.2" stroke="#000000"/>
        <path fill="none" stroke-width="0.01"
              d="M -839.804016,157.434448 C -682.890198,-118.064697 -34.270725,-295.942657 241.228424,-139.028809"
              class="id_21 id_5" stroke-opacity="0.2" stroke="#000000"/>
        <path fill="none" stroke-width="0.01"
              d="M -839.804016,157.434448 C -686.649414,-129.461380 -26.573715,-330.073181 260.322113,-176.918579"
              class="id_21 id_10" stroke-opacity="0.2" stroke="#000000"/>
        <path fill="none" stroke-width="0.01"
              d="M -839.804016,157.434448 C -846.614441,192.037338 -908.734375,233.726059 -943.337280,226.915649"
              class="id_21 id_20" stroke-opacity="0.2" stroke="#000000"/>
        <path fill="none" stroke-width="0.01"
              d="M -839.804016,157.434448 C -849.784546,217.534836 -954.906006,292.714569 -1015.006409,282.734009"
              class="id_21 id_27" stroke-opacity="0.2" stroke="#000000"/>
        <path fill="none" stroke-width="0.01"
              d="M 522.774780,-60.989868 C 487.805023,-4.707436 350.926788,27.261606 294.644348,-7.708130"
              class="id_22 id_1" stroke-opacity="0.2" stroke="#000000"/>
        <path fill="none" stroke-width="0.01"
              d="M 522.774780,-60.989868 C 510.916412,1.090397 400.008484,76.423248 337.928192,64.564880"
              class="id_22 id_8" stroke-opacity="0.2" stroke="#000000"/>
        <path fill="none" stroke-width="0.01"
              d="M 420.125519,-70.516724 C 407.591003,-32.858772 332.302277,4.826387 294.644348,-7.708130"
              class="id_23 id_1" stroke-opacity="0.2" stroke="#000000"/>
        <path fill="none" stroke-width="0.01"
              d="M 457.576630,-68.540405 C 437.156616,-23.787495 339.397247,12.711872 294.644348,-7.708130"
              class="id_24 id_1" stroke-opacity="0.2" stroke="#000000"/>
        <path fill="none" stroke-width="0.01"
              d="M 457.576630,-68.540405 C 405.200409,-12.930412 243.221146,-8.079731 187.611160,-60.455933"
              class="id_24 id_2" stroke-opacity="0.2" stroke="#000000"/>
        <path fill="none" stroke-width="0.01"
              d="M 1794.952271,781.709351 C 1337.007080,923.887451 436.822449,450.236938 294.644348,-7.708130"
              class="id_25 id_1" stroke-opacity="0.2" stroke="#000000"/>
        <path fill="none" stroke-width="0.01"
              d="M 1794.952271,781.709351 C 1133.165405,1243.906006 -552.809692,944.520874 -1015.006409,282.734009"
              class="id_25 id_27" stroke-opacity="0.2" stroke="#000000"/>
        <path fill="none" stroke-width="0.01"
              d="M 1794.952271,781.709351 C 1139.837280,1208.877686 -483.587402,866.957581 -910.755676,211.842651"
              class="id_25 id_29" stroke-opacity="0.2" stroke="#000000"/>
        <path fill="none" stroke-width="0.01"
              d="M 517.049988,56.008545 C 459.825500,87.746338 326.382141,49.516335 294.644348,-7.708130"
              class="id_26 id_1" stroke-opacity="0.2" stroke="#000000"/>
        <path fill="none" stroke-width="0.01"
              d="M 517.049988,56.008545 C 427.869324,98.603416 230.206039,28.724724 187.611160,-60.455933"
              class="id_26 id_2" stroke-opacity="0.2" stroke="#000000"/>
        <path fill="none" stroke-width="0.01"
              d="M 517.049988,56.008545 C 419.720123,76.432205 243.089844,-38.927094 222.666168,-136.256958"
              class="id_26 id_4" stroke-opacity="0.2" stroke="#000000"/>
        <path fill="none" stroke-width="0.01"
              d="M 517.049988,56.008545 C 482.936890,93.544174 375.463837,98.677979 337.928192,64.564880"
              class="id_26 id_8" stroke-opacity="0.2" stroke="#000000"/>
        <path fill="none" stroke-width="0.01"
              d="M 517.049988,56.008545 C 442.332642,76.952332 298.841003,-3.707973 277.897247,-78.425293"
              class="id_26 id_11" stroke-opacity="0.2" stroke="#000000"/>
        <path fill="none" stroke-width="0.01"
              d="M 517.049988,56.008545 C 259.153961,382.267426 -617.078430,484.811676 -943.337280,226.915649"
              class="id_26 id_20" stroke-opacity="0.2" stroke="#000000"/>
        <path fill="none" stroke-width="0.01"
              d="M 517.049988,56.008545 C 255.983795,407.764923 -663.250000,543.800171 -1015.006409,282.734009"
              class="id_26 id_27" stroke-opacity="0.2" stroke="#000000"/>
        <path fill="none" stroke-width="0.01"
              d="M 517.049988,56.008545 C 262.655640,372.736511 -594.027710,466.237000 -910.755676,211.842651"
              class="id_26 id_29" stroke-opacity="0.2" stroke="#000000"/>
        <path fill="none" stroke-width="0.011276041"
              d="M -1015.006409,282.734009 C -811.164673,-37.284607 -25.374260,-211.549866 294.644348,-7.708130"
              class="id_27 id_1" stroke-opacity="0.2" stroke="#000000"/>
        <path fill="none" stroke-width="0.01"
              d="M -1015.006409,282.734009 C -851.270081,-48.598709 -108.666557,-299.993286 222.666168,-136.256958"
              class="id_27 id_4" stroke-opacity="0.2" stroke="#000000"/>
        <path fill="none" stroke-width="0.01"
              d="M -1015.006409,282.734009 C -1011.836304,257.236511 -968.834778,223.745483 -943.337280,226.915649"
              class="id_27 id_20" stroke-opacity="0.2" stroke="#000000"/>
        <path fill="none" stroke-width="0.01"
              d="M -1015.006409,282.734009 C -1007.625854,230.949860 -918.878723,164.344559 -867.094604,171.725159"
              class="id_27 id_28" stroke-opacity="0.2" stroke="#000000"/>
        <path fill="none" stroke-width="0.01"
              d="M -867.094604,171.725159 C -871.305054,198.011795 -917.050659,231.126083 -943.337280,226.915649"
              class="id_28 id_20" stroke-opacity="0.2" stroke="#000000"/>
        <path fill="none" stroke-width="0.01"
              d="M -867.094604,171.725159 C -874.475159,223.509293 -963.222290,290.114594 -1015.006409,282.734009"
              class="id_28 id_27" stroke-opacity="0.2" stroke="#000000"/>
        <path fill="none" stroke-width="0.01"
              d="M -910.755676,211.842651 C -917.427551,246.871063 -979.977966,289.405884 -1015.006409,282.734009"
              class="id_29 id_27" stroke-opacity="0.2" stroke="#000000"/>
        <path fill="none" stroke-width="0.01"
              d="M -993.765015,369.320496 C -811.488831,36.232880 -38.443260,-189.984283 294.644348,-7.708130"
              class="id_30 id_1" stroke-opacity="0.2" stroke="#000000"/>
        <path fill="none" stroke-width="0.01"
              d="M -993.765015,369.320496 C -819.780212,45.116592 -72.497292,-180.212067 251.706619,-6.227295"
              class="id_30 id_3" stroke-opacity="0.2" stroke="#000000"/>
        <path fill="none" stroke-width="0.01"
              d="M -993.765015,369.320496 C -1015.330627,356.251495 -1028.075439,304.299591 -1015.006409,282.734009"
              class="id_30 id_27" stroke-opacity="0.2" stroke="#000000"/>
    </g>
    <g id="nodes">
        <circle fill="#000000" fill-opacity="1.0" r="5.0" class="id_1"
                cx="294.64435" cy="-7.70813"/>
        <circle fill="#000000" fill-opacity="1.0" r="0.27275643" class="id_2"
                cx="187.61116" cy="-60.455933"/>
        <circle fill="#000000" fill-opacity="1.0" r="0.4942529" class="id_3"
                cx="251.70662" cy="-6.227295"/>
        <circle fill="#000000" fill-opacity="1.0" r="0.11963141" class="id_4"
                cx="222.66617" cy="-136.25696"/>
        <circle fill="#000000" fill-opacity="1.0" r="0.5358173" class="id_5"
                cx="241.22842" cy="-139.02881"/>
        <circle fill="#000000" fill-opacity="1.0" r="0.2001202" class="id_6"
                cx="274.9227" cy="-14.587402"/>
        <circle fill="#000000" fill-opacity="1.0" r="0.5167816" class="id_7"
                cx="257.73288" cy="-64.29065"/>
        <circle fill="#000000" fill-opacity="1.0" r="0.61816096" class="id_8"
                cx="337.9282" cy="64.56488"/>
        <circle fill="#000000" fill-opacity="1.0" r="0.50551724" class="id_9"
                cx="269.83765" cy="-73.7113"/>
        <circle fill="#000000" fill-opacity="1.0" r="0.105889425" class="id_10"
                cx="260.3221" cy="-176.91858"/>
        <circle fill="#000000" fill-opacity="1.0" r="0.7308046" class="id_11"
                cx="277.89725" cy="-78.42529"/>
        <circle fill="#000000" fill-opacity="1.0" r="0.22390805" class="id_12"
                cx="486.8783" cy="-101.23462"/>
        <circle fill="#000000" fill-opacity="1.0" r="0.68574715" class="id_13"
                cx="299.00027" cy="-27.432495"/>
        <circle fill="#000000" fill-opacity="1.0" r="0.19011495" class="id_14"
                cx="339.61682" cy="-54.935425"/>
        <circle fill="#000000" fill-opacity="1.0" r="0.19011495" class="id_15"
                cx="-831.9894" cy="151.69873"/>
        <circle fill="#000000" fill-opacity="1.0" r="0.12252874" class="id_16"
                cx="508.51334" cy="63.981873"/>
        <circle fill="#000000" fill-opacity="1.0" r="0.19011495" class="id_17"
                cx="420.4931" cy="-20.249939"/>
        <circle fill="#000000" fill-opacity="1.0" r="0.1" class="id_18"
                cx="388.10464" cy="-69.62781"/>
        <circle fill="#000000" fill-opacity="1.0" r="0.12252874" class="id_19"
                cx="575.71765" cy="-135.51648"/>
        <circle fill="#000000" fill-opacity="1.0" r="0.18637821" class="id_20"
                cx="-943.3373" cy="226.91565"/>
        <circle fill="#000000" fill-opacity="1.0" r="0.14505747" class="id_21"
                cx="-839.804" cy="157.43445"/>
        <circle fill="#000000" fill-opacity="1.0" r="0.1" class="id_22"
                cx="522.7748" cy="-60.98987"/>
        <circle fill="#000000" fill-opacity="1.0" r="0.12252874" class="id_23"
                cx="420.12552" cy="-70.51672"/>
        <circle fill="#000000" fill-opacity="1.0" r="0.1" class="id_24"
                cx="457.57663" cy="-68.540405"/>
        <circle fill="#000000" fill-opacity="1.0" r="0.1" class="id_25"
                cx="1794.9523" cy="781.70935"/>
        <circle fill="#000000" fill-opacity="1.0" r="0.11126437" class="id_26"
                cx="517.05" cy="56.008545"/>
        <circle fill="#000000" fill-opacity="1.0" r="0.16478366" class="id_27"
                cx="-1015.0064" cy="282.734"/>
        <circle fill="#000000" fill-opacity="1.0" r="0.32528737" class="id_28"
                cx="-867.0946" cy="171.72516"/>
        <circle fill="#000000" fill-opacity="1.0" r="0.20137931" class="id_29"
                cx="-910.7557" cy="211.84265"/>
        <circle fill="#000000" fill-opacity="1.0" r="0.1675862" class="id_30"
                cx="-993.765" cy="369.3205"/>
    </g>
    <g id="node-labels">
        <text font-size="12" x="294.64435" y="-5.5255127" fill="#000000"
              style="text-anchor: middle; dominant-baseline: central;"
              font-family="Arial" class="id_1">
            London
        </text>
        <text font-size="12" x="187.61116" y="-58.273315" fill="#000000"
              style="text-anchor: middle; dominant-baseline: central;"
              font-family="Arial" class="id_2">
            Dublin
        </text>
        <text font-size="12" x="251.70662" y="-4.0446777" fill="#000000"
              style="text-anchor: middle; dominant-baseline: central;"
              font-family="Arial" class="id_3">
            Bristol
        </text>
        <text font-size="12" x="222.66617" y="-133.44055" fill="#000000"
              style="text-anchor: middle; dominant-baseline: central;"
              font-family="Arial" class="id_4">
            Glasgow
        </text>
        <text font-size="12" x="241.22842" y="-136.24951" fill="#000000"
              style="text-anchor: middle; dominant-baseline: central;"
              font-family="Arial" class="id_5">
            Edinburgh
        </text>
        <text font-size="12" x="274.9227" y="-12.364746" fill="#000000"
              style="text-anchor: middle; dominant-baseline: central;"
              font-family="Arial" class="id_6">
            Oxford
        </text>
        <text font-size="12" x="257.73288" y="-62.108032" fill="#000000"
              style="text-anchor: middle; dominant-baseline: central;"
              font-family="Arial" class="id_7">
            Manchester
        </text>
        <text font-size="12" x="337.9282" y="66.7475" fill="#000000"
              style="text-anchor: middle; dominant-baseline: central;"
              font-family="Arial" class="id_8">
            Paris
        </text>
        <text font-size="12" x="269.83765" y="-71.52869" fill="#000000"
              style="text-anchor: middle; dominant-baseline: central;"
              font-family="Arial" class="id_9">
            Leeds
        </text>
        <text font-size="12" x="260.3221" y="-174.73596" fill="#000000"
              style="text-anchor: middle; dominant-baseline: central;"
              font-family="Arial" class="id_10">
            Aberdeen
        </text>
        <text font-size="12" x="277.89725" y="-76.242676" fill="#000000"
              style="text-anchor: middle; dominant-baseline: central;"
              font-family="Arial" class="id_11">
            York
        </text>
        <text font-size="12" x="486.8783" y="-99.052" fill="#000000"
              style="text-anchor: middle; dominant-baseline: central;"
              font-family="Arial" class="id_12">
            Amsterdam
        </text>
        <text font-size="12" x="299.00027" y="-24.616089" fill="#000000"
              style="text-anchor: middle; dominant-baseline: central;"
              font-family="Arial" class="id_13">
            Cambridge
        </text>
        <text font-size="12" x="339.61682" y="-52.752808" fill="#000000"
              style="text-anchor: middle; dominant-baseline: central;"
              font-family="Arial" class="id_14">
            Exeter
        </text>
        <text font-size="12" x="-831.9894" y="153.92041" fill="#000000"
              style="text-anchor: middle; dominant-baseline: central;"
              font-family="Arial" class="id_15">
            Gloucester
        </text>
        <text font-size="12" x="508.51334" y="66.20355" fill="#000000"
              style="text-anchor: middle; dominant-baseline: central;"
              font-family="Arial" class="id_16">
            Geneva
        </text>
        <text font-size="12" x="420.4931" y="-18.067322" fill="#000000"
              style="text-anchor: middle; dominant-baseline: central;"
              font-family="Arial" class="id_17">
            Rouen
        </text>
        <text font-size="12" x="388.10464" y="-67.44519" fill="#000000"
              style="text-anchor: middle; dominant-baseline: central;"
              font-family="Arial" class="id_18">
            Aldershot
        </text>
        <text font-size="12" x="575.71765" y="-132.73718" fill="#000000"
              style="text-anchor: middle; dominant-baseline: central;"
              font-family="Arial" class="id_19">
            Hamburg
        </text>
        <text font-size="12" x="-943.3373" y="229.65979" fill="#000000"
              style="text-anchor: middle; dominant-baseline: central;"
              font-family="Arial" class="id_20">
            Boston_Ma
        </text>
        <text font-size="12" x="-839.804" y="160.25085" fill="#000000"
              style="text-anchor: middle; dominant-baseline: central;"
              font-family="Arial" class="id_21">
            Cambridge_Ma
        </text>
        <text font-size="12" x="522.7748" y="-58.173462" fill="#000000"
              style="text-anchor: middle; dominant-baseline: central;"
              font-family="Arial" class="id_22">
            Cologne
        </text>
        <text font-size="12" x="420.12552" y="-67.70032" fill="#000000"
              style="text-anchor: middle; dominant-baseline: central;"
              font-family="Arial" class="id_23">
            Canterbury
        </text>
        <text font-size="12" x="457.57663" y="-65.76111" fill="#000000"
              style="text-anchor: middle; dominant-baseline: central;"
              font-family="Arial" class="id_24">
            Bruges
        </text>
        <text font-size="12" x="1794.9523" y="784.48865" fill="#000000"
              style="text-anchor: middle; dominant-baseline: central;"
              font-family="Arial" class="id_25">
            Tharangampadi
        </text>
        <text font-size="12" x="517.05" y="58.191162" fill="#000000"
              style="text-anchor: middle; dominant-baseline: central;"
              font-family="Arial" class="id_26">
            Lausanne
        </text>
        <text font-size="12" x="-1015.0064" y="285.47815" fill="#000000"
              style="text-anchor: middle; dominant-baseline: central;"
              font-family="Arial" class="id_27">
            Philadelphia_Pa
        </text>
        <text font-size="12" x="-867.0946" y="174.50641" fill="#000000"
              style="text-anchor: middle; dominant-baseline: central;"
              font-family="Arial" class="id_28">
            Hartford_Ct
        </text>
        <text font-size="12" x="-910.7557" y="214.6239" fill="#000000"
              style="text-anchor: middle; dominant-baseline: central;"
              font-family="Arial" class="id_29">
            Germantown_Pa
        </text>
        <text font-size="12" x="-993.765" y="372.10175" fill="#000000"
              style="text-anchor: middle; dominant-baseline: central;"
              font-family="Arial" class="id_30">
            Charleston_SC
        </text>
    </g>
</svg>